<?xml version="1.0" encoding="iso-8859-1"?>
<!-- Generator: Adobe Illustrator 19.0.0, SVG Export Plug-In . SVG Version: 6.00 Build 0)  -->
<svg version="1.1" id="Layer_1" xmlns="http://www.w3.org/2000/svg" xmlns:xlink="http://www.w3.org/1999/xlink" x="0px" y="0px"
	 viewBox="0 0 511.999 511.999" style="enable-background:new 0 0 511.999 511.999;" xml:space="preserve">
<g>
	<g>
		<path d="M509.384,61.784c-2.501-2.463-6.227-3.2-9.476-1.873L5.455,261.892c-3.186,1.302-5.316,4.345-5.448,7.785
			s1.759,6.638,4.837,8.18l124.677,62.456l32.758,87.556c1.287,3.439,4.57,5.699,8.214,5.699c0.131,0,0.263-0.002,0.394-0.008
			c2.062-0.092,3.95-0.918,5.419-2.224l0.015,0.018l48.644-43.226l127.134,63.683c1.233,0.618,2.579,0.929,3.929,0.929
			c1.064,0,2.13-0.194,3.144-0.584c2.302-0.883,4.125-2.695,5.024-4.991l147.2-375.935
			C512.674,67.962,511.884,64.247,509.384,61.784z M440.331,103.201L273.127,225.615L75.656,252.167L440.331,103.201z
			 M386.11,164.642l-93.692,86.863l-5.365-14.34L386.11,164.642z M38.144,274.915l205.361-27.614l-105.824,77.476L38.144,274.915z
			 M179.881,357.634l-10.659,38.724l-21.418-57.245l124.544-91.183l6.162,16.47l-96.135,89.129
			C181.178,354.639,180.313,356.06,179.881,357.634z M186.814,398.553l7.146-25.959l14.112,7.068L186.814,398.553z M203.583,357.792
			l100.772-93.427l38.794,163.338L203.583,357.792z M358.083,414.656l-38.949-163.993l161.953-150.15L358.083,414.656z"/>
	</g>
</g>
<g>
</g>
<g>
</g>
<g>
</g>
<g>
</g>
<g>
</g>
<g>
</g>
<g>
</g>
<g>
</g>
<g>
</g>
<g>
</g>
<g>
</g>
<g>
</g>
<g>
</g>
<g>
</g>
<g>
</g>
</svg>
